<?xml version="1.0" standalone="no"?>
<!DOCTYPE svg PUBLIC "-//W3C//DTD SVG 20010904//EN"
 "http://www.w3.org/TR/2001/REC-SVG-20010904/DTD/svg10.dtd">
<svg version="1.0" xmlns="http://www.w3.org/2000/svg"
 width="512.000000pt" height="512.000000pt" viewBox="0 0 512.000000 512.000000"
 preserveAspectRatio="xMidYMid meet">
<metadata>
Created by potrace 1.14, written by Peter Selinger 2001-2017
</metadata>
<g transform="translate(0.000000,512.000000) scale(0.100000,-0.100000)"
fill="#000000" stroke="none">
<path d="M1152 3553 l3 -118 383 -3 382 -2 0 -680 c0 -461 -4 -696 -11 -732
-75 -356 -508 -441 -848 -167 -49 39 -68 49 -99 49 -36 0 -41 -4 -101 -86 -34
-47 -64 -91 -67 -98 -10 -27 174 -154 296 -203 131 -54 217 -66 439 -60 214 5
269 15 376 69 176 88 285 237 321 438 10 59 13 252 14 893 l0 817 -545 0 -546
0 3 -117z"/>
<path d="M2800 2581 l0 -1091 510 0 c577 0 605 3 746 70 131 63 215 164 260
315 29 94 27 335 -3 431 -45 141 -131 236 -270 294 l-66 28 62 32 c164 82 241
228 241 455 0 235 -90 398 -263 481 -137 65 -157 67 -714 71 l-503 4 0 -1090z
m901 839 c122 -23 212 -95 241 -193 20 -67 17 -232 -6 -296 -27 -78 -93 -141
-176 -170 -81 -27 -277 -43 -485 -39 l-150 3 -3 353 -2 352 264 0 c145 0 288
-5 317 -10z m16 -946 c185 -38 268 -122 294 -299 13 -87 0 -201 -30 -270 -41
-93 -134 -152 -273 -175 -35 -5 -181 -10 -325 -10 l-263 0 0 385 0 385 260 0
c199 0 279 -4 337 -16z"/>
</g>
</svg>
